<svg xmlns="http://www.w3.org/2000/svg" width="34.314" height="34.316" viewBox="0 0 34.314 34.316">
  <g id="aaha91.tif_1_" transform="translate(-0.004 -0.001)" opacity="0.8">
    <g id="Groupe_7" data-name="Groupe 7" transform="translate(0.004 0.001)">
      <path id="Tracé_18" data-name="Tracé 18" d="M3.648,25.584c0-1.58-.008-3.16.006-4.741,0-.352-.061-.511-.471-.535A3.211,3.211,0,0,1,.994,14.78Q5.133,10.646,9.268,6.51c1.866-1.866,3.764-3.7,5.584-5.607A3.561,3.561,0,0,1,18.711.328a4.047,4.047,0,0,1,.866.687q6.882,6.878,13.763,13.757a3.192,3.192,0,0,1,.749,3.525,3.016,3.016,0,0,1-2.933,2.013c-.424.021-.5.164-.494.54.012,3.135-.043,6.27.026,9.4A3.873,3.873,0,0,1,26.7,34.3c-1.656.014-3.313.006-4.97,0a1.16,1.16,0,0,1-1.3-1.321c.032-2.485.012-4.969.009-7.454a2.177,2.177,0,0,0-.249-1.181,1.568,1.568,0,0,0-1.386-.809c-1.083,0-2.167-.009-3.25,0A1.6,1.6,0,0,0,13.921,25.2q0,3.879,0,7.76c0,.924-.388,1.338-1.318,1.346-1.669.015-3.339.028-5.007,0a3.779,3.779,0,0,1-3.845-3.027A6.06,6.06,0,0,1,3.654,30.1C3.642,28.59,3.648,27.087,3.648,25.584Zm2.137-.515c0,1.783,0,3.568,0,5.351a1.671,1.671,0,0,0,.474,1.286,1.939,1.939,0,0,0,1.4.5c1.223.006,2.447-.014,3.669.011.395.008.494-.119.491-.5q-.025-3.287,0-6.575a3.739,3.739,0,0,1,3.7-3.71c1.109-.011,2.218-.006,3.325,0a3.457,3.457,0,0,1,1.783.494,3.878,3.878,0,0,1,1.909,3.6v6.231c0,.234-.031.463.333.46,1.312-.012,2.626.026,3.937-.015a1.7,1.7,0,0,0,1.766-1.834c-.035-1.9-.011-3.8-.009-5.7,0-1.745,0-3.492,0-5.237a1.094,1.094,0,0,1,1.207-1.211c.421,0,.841.006,1.262,0a1.092,1.092,0,0,0,1.107-.662,1.147,1.147,0,0,0-.3-1.324q-6.855-6.85-13.7-13.7a1.181,1.181,0,0,0-1.922.012Q9.378,9.357,2.553,16.181A1.208,1.208,0,0,0,2.19,17.53a1.124,1.124,0,0,0,1.175.684c.433.006.867,0,1.3,0a1.027,1.027,0,0,1,1.081.965,5.062,5.062,0,0,1,.038.609Q5.784,22.433,5.784,25.068Z" transform="translate(-0.004 -0.001)" fill="#a29eff"/>
    </g>
  </g>
</svg>
