<svg xmlns="http://www.w3.org/2000/svg" width="33.405" height="34.316" viewBox="0 0 33.405 34.316">
  <defs>
    <style>
      .cls-1 {
        opacity: 0.8;
      }

      .cls-2 {
        fill: #a29eff;
      }
    </style>
  </defs>
  <g id="LOfdMe.tif_1_" class="cls-1" transform="translate(-0.002 -0.003)">
    <g id="Groupe_8" data-name="Groupe 8" transform="translate(0.002 0.002)">
      <path id="Tracé_19" data-name="Tracé 19" class="cls-2" d="M33.407,17.161V32.991c0,.99-.34,1.328-1.332,1.328H5.118c-.948,0-1.286-.338-1.286-1.285s-.012-1.912.006-2.868c.006-.324-.081-.437-.424-.451a3.556,3.556,0,0,1-.621-7.028c.063-.014.124-.029.187-.037.85-.11.855-.11.847-.951,0-.3.118-.667-.054-.9s-.571-.119-.866-.167a3.566,3.566,0,0,1,.044-7.014l.265-.037c.613-.086.616-.086.613-.691a2.516,2.516,0,0,0-.057-1.088c-.165-.3-.65-.145-.988-.223A3.566,3.566,0,0,1,3.38,4.54c.378-.024.465-.15.457-.5-.02-.98-.011-1.962-.006-2.944A1,1,0,0,1,4.925,0Q18.6,0,32.266,0c.757,0,1.14.408,1.14,1.213Q33.408,9.187,33.407,17.161Zm-2.1.011V2.755c0-.655,0-.656-.639-.656H6.579c-.089,0-.179.006-.268,0-.277-.023-.387.1-.385.378q.009,3.366,0,6.73c0,.258.09.366.358.361.638-.012,1.274-.014,1.912,0A1.034,1.034,0,0,1,9.228,10.8a1.071,1.071,0,0,1-1.107.866c-.612.015-1.224.012-1.835,0-.266,0-.359.1-.359.363q.007,3.1,0,6.195c0,.291.119.373.392.367.586-.014,1.173-.008,1.759,0a1.056,1.056,0,1,1,.014,2.1c-.586.009-1.173.014-1.759,0-.294-.008-.408.09-.407.395q.014,3.079,0,6.156c0,.277.1.389.379.382.586-.014,1.173-.009,1.759,0a1.058,1.058,0,1,1,0,2.1c-.6.006-1.2.009-1.8,0-.248,0-.343.1-.34.34.008.535,0,1.071,0,1.606s0,.551.552.551H30.761c.545,0,.546,0,.546-.558Q31.309,24.417,31.308,17.171ZM3.83,17.154c0-.407,0-.815,0-1.222,0-.194-.081-.266-.274-.274a1.436,1.436,0,0,0-1.439,1.462,1.394,1.394,0,0,0,1.416,1.471c.208-.006.3-.075.3-.291C3.824,17.918,3.83,17.535,3.83,17.154Zm0,9.006c0-.395,0-.789,0-1.185,0-.177-.043-.284-.254-.292a1.449,1.449,0,0,0-1.459,1.374,1.409,1.409,0,0,0,1.36,1.566c.266,0,.367-.086.356-.353C3.819,26.9,3.83,26.531,3.83,26.16ZM3.83,8.1c0-.382-.011-.765,0-1.146.009-.258-.107-.327-.344-.323A1.413,1.413,0,0,0,2.117,8.075a1.438,1.438,0,0,0,1.37,1.49c.239.006.355-.061.346-.321C3.819,8.863,3.83,8.48,3.83,8.1Z" transform="translate(-0.002 -0.002)"/>
      <path id="Tracé_20" data-name="Tracé 20" class="cls-2" d="M82.1,78.8a6.258,6.258,0,0,1-4.452-1.78c-1.952-1.921-3.9-3.844-5.811-5.811a6.3,6.3,0,0,1-.162-8.523,2.265,2.265,0,0,1,3.556.138c.675.941,1.308,1.917,1.9,2.914a2.127,2.127,0,0,1-.069,2.288c-.425.708-.405.867.177,1.452q1.133,1.138,2.268,2.271c.5.5.713.522,1.3.148a2.232,2.232,0,0,1,2.554-.015c.916.575,1.828,1.162,2.712,1.788a2.252,2.252,0,0,1,.161,3.547A6.282,6.282,0,0,1,82.1,78.8Zm-1.69-4.589a2.728,2.728,0,0,1-2.024-.642c-1.009-.9-1.912-1.907-2.868-2.86a2.777,2.777,0,0,1-.382-3.567.534.534,0,0,0-.011-.687c-.463-.685-.91-1.384-1.364-2.076-.314-.477-.408-.476-.756,0a4.237,4.237,0,0,0,.491,5.546c1.826,1.849,3.674,3.679,5.517,5.511a4.476,4.476,0,0,0,.613.514,4.118,4.118,0,0,0,5.064-.167c.225-.206.257-.353-.018-.532q-1.186-.769-2.363-1.554a.345.345,0,0,0-.448.009A2.549,2.549,0,0,1,80.413,74.212Z" transform="translate(-59.377 -52.425)"/>
      <path id="Tracé_21" data-name="Tracé 21" class="cls-2" d="M127.387,49a8.646,8.646,0,0,1,8.518,7.356,7.048,7.048,0,0,1,.076,2.053,1.047,1.047,0,1,1-2.082-.182,6.61,6.61,0,0,0-6.86-7.132,1.943,1.943,0,0,1-.644-.041,1.071,1.071,0,0,1-.786-1.089A1.042,1.042,0,0,1,126.622,49C126.877,48.988,127.133,49,127.387,49Z" transform="translate(-106.394 -41.501)"/>
      <path id="Tracé_22" data-name="Tracé 22" class="cls-2" d="M129.222,75.018a4.7,4.7,0,0,1,4.6,5.207,1,1,0,0,1-.907.884.98.98,0,0,1-1.126-.8c-.06-.309-.034-.632-.07-.947a2.554,2.554,0,0,0-2.42-2.242,3.1,3.1,0,0,1-.722-.044,1.057,1.057,0,0,1-.806-1.106,1.068,1.068,0,0,1,.991-.947C128.916,75.007,129.071,75.018,129.222,75.018Z" transform="translate(-108.225 -63.541)"/>
    </g>
  </g>
</svg>
