<svg xmlns="http://www.w3.org/2000/svg" width="32.515" height="29.813" viewBox="0 0 32.515 29.813">
  <defs>
    <style>
      .cls-1, .cls-3 {
        opacity: 0.8;
      }

      .cls-2, .cls-3 {
        fill: #a29eff;
      }
    </style>
  </defs>
  <g id="Groupe_19" data-name="Groupe 19" transform="translate(-282.201 -757.687)">
    <g id="n16ARy.tif_1_" class="cls-1" transform="translate(282.201 757.686)">
      <g id="Groupe_9" data-name="Groupe 9" transform="translate(0 0)">
        <path id="Tracé_23" data-name="Tracé 23" class="cls-2" d="M16.258,0q5.766,0,11.533,0a4.506,4.506,0,0,1,4.722,4.735q0,7,0,14a4.509,4.509,0,0,1-3.784,4.576,3.894,3.894,0,0,1-.769.043q-6.789,0-13.577,0a1.4,1.4,0,0,0-.853.272q-4.3,3-8.614,5.988c-.119.083-.242.265-.394.176s-.065-.286-.065-.434c0-1.852-.009-3.7,0-5.554,0-.327-.088-.429-.426-.458A4.477,4.477,0,0,1,.045,19.249C.011,18.8,0,18.351,0,17.9Q0,11.323,0,4.746A4.625,4.625,0,0,1,.935,1.791,4.368,4.368,0,0,1,4.492.008C8.414-.006,12.335,0,16.258,0ZM6.489,26.1c.1-.066.177-.114.25-.165,2-1.386,4-2.764,5.98-4.168A2.073,2.073,0,0,1,14,21.374q6.982.021,13.965,0a2.509,2.509,0,0,0,2.562-2.568q.009-7.1,0-14.2a2.808,2.808,0,0,0-.194-1.056,2.517,2.517,0,0,0-2.5-1.579q-11.553,0-23.107,0c-.09,0-.181,0-.27,0A2.458,2.458,0,0,0,2.028,4.351q-.016,7.31,0,14.621a2.443,2.443,0,0,0,2.386,2.4c.54.015,1.08.015,1.62,0,.3-.006.407.106.4.407-.011,1.286-.006,2.571,0,3.858A.883.883,0,0,0,6.489,26.1Z" transform="translate(0 0)"/>
      </g>
    </g>
    <circle id="Ellipse_9" data-name="Ellipse 9" class="cls-3" cx="2.5" cy="2.5" r="2.5" transform="translate(289 767)"/>
    <circle id="Ellipse_10" data-name="Ellipse 10" class="cls-3" cx="2.5" cy="2.5" r="2.5" transform="translate(296 767)"/>
    <circle id="Ellipse_11" data-name="Ellipse 11" class="cls-3" cx="2.5" cy="2.5" r="2.5" transform="translate(303 767)"/>
  </g>
</svg>
