<svg xmlns="http://www.w3.org/2000/svg" xmlns:xlink="http://www.w3.org/1999/xlink" width="162.889" height="160.022" viewBox="0 0 162.889 160.022">
  <defs>
    <linearGradient id="linear-gradient" x1="0.5" x2="0.5" y2="1" gradientUnits="objectBoundingBox">
      <stop offset="0" stop-color="#a29eff"/>
      <stop offset="1" stop-color="#e0d7f6"/>
    </linearGradient>
  </defs>
  <g id="Groupe_25" data-name="Groupe 25" transform="translate(-125.857 -117.314)">
    <path id="Tracé_3" data-name="Tracé 3" d="M119.2,76.6c-6.238,20.411-19.519,31.547-33.425,34.916-16.61,4.026-36.514-2.54-41.571-19.345S32.24,55.659,12.591,57.074.235,34.627,8.09,23.507,37.764-7.275,74.513,2.773C104.249,10.906,129.891,41.619,119.2,76.6Z" transform="matrix(0.848, -0.53, 0.53, 0.848, 125.857, 181.792)" opacity="0.75" fill="url(#linear-gradient)"/>
    <g id="g7Rbbd.tif_1_" transform="translate(169.852 160.169)">
      <g id="Groupe_4" data-name="Groupe 4" transform="translate(-0.001 -0.005)">
        <path id="Tracé_15" data-name="Tracé 15" d="M37.194,0A37.117,37.117,0,1,1,0,36.984,37.21,37.21,0,0,1,37.194,0Zm-3,42.127c0,.44-.022.883,0,1.321a2.945,2.945,0,0,0,5.885-.017c.026-.44.013-.881.026-1.321a3.3,3.3,0,0,1,1.926-3.121,16,16,0,0,0,6.18-5.353c1.961-2.818,3.2-5.87,2.57-9.379-.948-5.312-3.92-9.089-9.013-10.909a13.2,13.2,0,0,0-13.928,2.792,13.568,13.568,0,0,0-4.527,9.781,3.088,3.088,0,0,0,2.915,3.36,2.983,2.983,0,0,0,3.091-3.147,7.852,7.852,0,0,1,5.123-7.149,7.614,7.614,0,0,1,8.616,2.28c1.657,2,2.518,4.3,1.41,6.9a10.357,10.357,0,0,1-4.93,5.366A9.089,9.089,0,0,0,34.2,42.123Zm5.887,13.5A2.944,2.944,0,1,0,37.1,58.567,2.845,2.845,0,0,0,40.083,55.626Z" transform="translate(0.001 0.005)" fill="#2d2043"/>
      </g>
    </g>
  </g>
</svg>
