<svg id="_x35_xo5qs.tif_1_" xmlns="http://www.w3.org/2000/svg" width="88.893" height="113.145" viewBox="0 0 88.893 113.145">
  <g id="Groupe_15" data-name="Groupe 15" transform="translate(0 0)">
    <path id="Tracé_43" data-name="Tracé 43" d="M69.6,84.68a4.609,4.609,0,0,1,.653-.04c7.071.8,14.065,7.648,14.845,14.733.3,2.708.2,5.461.278,8.189.035,1.311.633,2.065,1.68,2.075a1.8,1.8,0,0,0,1.8-2.009c-.02-2.733.04-5.481-.218-8.194A21.124,21.124,0,0,0,67.866,80.615q-5.618,0-11.241-.005c-.445,0-.891-.035-1.306-.056a3.475,3.475,0,0,1-.1-.521c-.01-.886.051-1.777-.035-2.652-.1-.962.314-1.4,1.164-1.782A28.619,28.619,0,0,0,68.569,65.178,29.837,29.837,0,0,0,73.418,51.27a1.553,1.553,0,0,1,.678-1.124c3.077-1.326,4.935-3.553,4.94-6.954.01-3.477-2-5.648-5.056-7.025a1.587,1.587,0,0,1-.719-1.194c-.066-2.612-.035-5.223-.035-7.83V22.724c1.913,0,3.669.015,5.421-.005a1.69,1.69,0,0,0,1.883-1.863,10.687,10.687,0,0,0-.015-1.139A21.169,21.169,0,0,0,59.737.045Q49.7-.054,39.654.055a10.659,10.659,0,0,0-8.913,4.454,2.2,2.2,0,0,1-1.417.784A16.671,16.671,0,0,0,14.378,21.484c0,4.5-.01,9.009.01,13.519.005.714-.132,1.144-.906,1.387-3.254,1.022-4.783,3.421-5.016,6.691A7.166,7.166,0,0,0,13.027,50a1.327,1.327,0,0,1,.891,1.306,31.406,31.406,0,0,0,.643,4.358A29,29,0,0,0,31.576,76.278c.364.167.85.557.881.881.111,1.108.04,2.237.04,3.462H21.2A21.3,21.3,0,0,0,1.624,93.744C-.31,98.375-.052,103.219.044,108.053a1.58,1.58,0,0,0,1.8,1.574,1.635,1.635,0,0,0,1.64-1.847c.005-1.852-.015-3.7.005-5.557A17.5,17.5,0,0,1,8.1,90.136a17.11,17.11,0,0,1,12.172-5.679c.081.177.147.248.147.324.02.759-.025,1.518.051,2.267.1.921-.263,1.286-1.149,1.574a10,10,0,0,0-7.106,8.093,13.937,13.937,0,0,0-.162,2.642q-.023,5.5.01,10.988c.01,1.149.283,2.313,1.6,2.515a15.217,15.217,0,0,0,3.654.005,1.58,1.58,0,0,0,1.534-1.7,1.629,1.629,0,0,0-1.635-1.731c-.526-.046-1.058-.01-1.66-.01,0-3.9-.005-7.592.01-11.292a5.468,5.468,0,0,1,.2-1.488A6.689,6.689,0,0,1,23.154,91.7a6.542,6.542,0,0,1,5.638,6.311c.116,3.619.035,7.243.035,10.862a2.158,2.158,0,0,1-.172.547c-.648,0-1.275-.015-1.9.005a1.637,1.637,0,0,0-1.817,1.67,1.688,1.688,0,0,0,1.827,1.8c1.22.04,2.445-.03,3.664.02a1.542,1.542,0,0,0,1.721-1.321,8.615,8.615,0,0,0,.167-1.878q.023-5.428.005-10.867c-.01-5.324-2.546-8.771-7.617-10.446a1.2,1.2,0,0,1-.729-.795c-.086-1.119-.035-2.247-.035-3.513,3.371,0,6.6-.02,9.829.03.334.005.719.375.982.668,2.171,2.4,4.3,4.854,6.494,7.233a3.133,3.133,0,0,1,.865,2.379c-.04,3.285-.015,6.57-.015,9.854,0,1.265-.025,2.526.03,3.791a1.688,1.688,0,0,0,3.315.314,5.413,5.413,0,0,0,.127-1.372c.01-4.338-.015-8.675.035-13.013a2.584,2.584,0,0,1,.638-1.65q3.819-3.857,7.779-7.577a2.714,2.714,0,0,1,1.655-.633c2.4-.071,4.8-.03,7.2-.03H66.1c0,3.761-.04,7.334.025,10.907a1.763,1.763,0,0,1-1.311,2.025,8.167,8.167,0,0,0-4.8,10.031,8.385,8.385,0,0,0,9.586,5.927,8.524,8.524,0,0,0,6.878-7.415,8.184,8.184,0,0,0-5.9-8.766,1.211,1.211,0,0,1-1.017-1.412c.051-2.232.015-4.464.015-6.7C69.6,87.372,69.6,86.036,69.6,84.68ZM53.411,109.637v.01c.38,0,.759.015,1.139-.005a1.736,1.736,0,1,0,.061-3.472,18.067,18.067,0,0,0-2.4.005,1.726,1.726,0,0,0-.061,3.447A8.712,8.712,0,0,0,53.411,109.637Zm-.132-7.106c.617-.051,1.083-.061,1.534-.132a1.587,1.587,0,0,0,1.513-1.817,1.546,1.546,0,0,0-1.751-1.564c-.84-.005-1.68-.02-2.521.02a1.382,1.382,0,0,0-1.473,1.534,2.871,2.871,0,0,0,1.134,1.7C52.13,102.576,52.844,102.47,53.279,102.531Z" transform="translate(0.023 0.002)" fill="#a29eff"/>
    <path id="Tracé_44" data-name="Tracé 44" d="M69.616,84.69v4.024c0,2.232.035,4.464-.015,6.7a1.208,1.208,0,0,0,1.017,1.412,8.176,8.176,0,0,1,5.9,8.766A8.523,8.523,0,0,1,69.642,113a8.387,8.387,0,0,1-9.586-5.927,8.167,8.167,0,0,1,4.8-10.031,1.761,1.761,0,0,0,1.311-2.025c-.066-3.568-.025-7.141-.025-10.907H62.915c-2.4,0-4.8-.04-7.2.03a2.691,2.691,0,0,0-1.655.633q-3.955,3.72-7.779,7.577A2.584,2.584,0,0,0,45.646,94c-.051,4.338-.025,8.675-.035,13.013a5.371,5.371,0,0,1-.127,1.372,1.688,1.688,0,0,1-3.315-.314c-.056-1.26-.03-2.526-.03-3.791,0-3.285-.025-6.57.015-9.854a3.179,3.179,0,0,0-.865-2.379c-2.2-2.379-4.322-4.828-6.494-7.233-.263-.288-.648-.663-.982-.668-3.229-.051-6.458-.03-9.829-.03,0,1.265-.051,2.394.035,3.513a1.215,1.215,0,0,0,.729.795c5.071,1.675,7.607,5.122,7.617,10.446q.015,5.436-.005,10.867a8.313,8.313,0,0,1-.167,1.878,1.542,1.542,0,0,1-1.721,1.321c-1.22-.051-2.445.015-3.664-.02a1.685,1.685,0,0,1-1.827-1.8,1.64,1.64,0,0,1,1.817-1.67c.623-.02,1.25-.005,1.9-.005a2.158,2.158,0,0,0,.172-.547c0-3.619.081-7.243-.035-10.862a6.546,6.546,0,0,0-5.638-6.311,6.689,6.689,0,0,0-7.384,4.945,5.923,5.923,0,0,0-.2,1.488c-.015,3.695-.01,7.395-.01,11.292.6,0,1.134-.04,1.66.01a1.629,1.629,0,0,1,1.635,1.731,1.583,1.583,0,0,1-1.534,1.7,15.217,15.217,0,0,1-3.654-.005c-1.326-.2-1.6-1.367-1.6-2.515-.03-3.664-.025-7.329-.01-10.988a14.825,14.825,0,0,1,.162-2.642,9.989,9.989,0,0,1,7.106-8.093c.886-.288,1.245-.653,1.149-1.574-.081-.749-.035-1.513-.051-2.267,0-.076-.066-.147-.147-.324A17.1,17.1,0,0,0,8.137,90.156a17.5,17.5,0,0,0-4.611,12.086c-.02,1.852-.005,3.7-.005,5.557a1.635,1.635,0,0,1-1.64,1.847,1.583,1.583,0,0,1-1.8-1.574c-.1-4.828-.354-9.677,1.579-14.308A21.3,21.3,0,0,1,21.235,80.641h11.3c0-1.23.066-2.353-.04-3.462-.03-.324-.516-.714-.881-.881A29,29,0,0,1,14.6,55.684a31.632,31.632,0,0,1-.643-4.358,1.329,1.329,0,0,0-.891-1.306A7.171,7.171,0,0,1,8.506,43.1c.233-3.27,1.761-5.669,5.016-6.691.769-.243.906-.673.906-1.387-.025-4.5-.015-9.009-.01-13.519A16.667,16.667,0,0,1,29.364,5.314a2.2,2.2,0,0,0,1.417-.784A10.653,10.653,0,0,1,39.694.076Q49.738-.031,59.777.071A21.169,21.169,0,0,1,80.554,19.744a10.687,10.687,0,0,1,.015,1.139,1.685,1.685,0,0,1-1.883,1.863c-1.756.025-3.513.005-5.421.005v4.419c0,2.612-.03,5.223.035,7.83a1.6,1.6,0,0,0,.719,1.194c3.062,1.377,5.066,3.548,5.056,7.025-.01,3.4-1.868,5.628-4.94,6.954a1.562,1.562,0,0,0-.678,1.124A29.893,29.893,0,0,1,68.609,65.2,28.619,28.619,0,0,1,56.386,75.625c-.85.385-1.26.82-1.164,1.782.086.876.025,1.766.035,2.652a3.476,3.476,0,0,0,.1.521c.415.02.86.056,1.306.056,3.745.005,7.5,0,11.241.005A21.127,21.127,0,0,1,88.672,99.459c.258,2.713.2,5.461.218,8.194a1.794,1.794,0,0,1-1.8,2.009c-1.048-.01-1.645-.764-1.68-2.075-.076-2.733.02-5.481-.278-8.189-.779-7.086-7.774-13.934-14.845-14.733A3.283,3.283,0,0,0,69.616,84.69ZM18.138,34.5c-.015.258-.061.749-.061,1.245-.005,3.958-.02,7.916.005,11.874a39.1,39.1,0,0,0,.2,5.284c2.384,16.814,20.4,27.321,36.052,19.866,9.718-4.626,14.931-12.527,15.285-23.282.278-8.412.04-16.844.076-25.266.005-1.073-.233-1.453-1.387-1.448-8.969.051-17.937.035-26.906.01a2.332,2.332,0,0,0-1.928.926,29.577,29.577,0,0,1-13.331,9C23.6,33.505,20.922,33.89,18.138,34.5Zm33.4,43.112A31.471,31.471,0,0,1,36.116,78c0,1.1-.04,2.019.015,2.936a2.335,2.335,0,0,0,.375,1.382c2.389,2.47,4.844,4.884,7.339,7.379,2.5-2.5,4.935-4.93,7.354-7.374a1.1,1.1,0,0,0,.324-.653C51.558,80.383,51.542,79.087,51.542,77.609Zm16.636,32.1a4.877,4.877,0,0,0,4.849-4.889,4.824,4.824,0,0,0-4.915-4.8,4.844,4.844,0,0,0,.066,9.687Zm5.284-63.585a3.52,3.52,0,0,0,0-6.124Zm-59.2.056V39.8c-1.215,1.083-1.969,2.111-1.893,3.548A3.252,3.252,0,0,0,14.261,46.184Z" transform="translate(0.003 -0.009)" fill="#a29eff"/>
    <path id="Tracé_45" data-name="Tracé 45" d="M102.744,213.2a9.513,9.513,0,0,1-1.26-.01,1.726,1.726,0,0,1,.061-3.447,17.25,17.25,0,0,1,2.4-.005,1.736,1.736,0,1,1-.061,3.472c-.38.02-.759.005-1.139.005Z" transform="translate(-49.311 -103.565)" fill="#a29eff"/>
    <path id="Tracé_46" data-name="Tracé 46" d="M102.651,199.146c-.435-.061-1.149.046-1.559-.258a2.863,2.863,0,0,1-1.134-1.7,1.382,1.382,0,0,1,1.473-1.534c.84-.04,1.68-.025,2.521-.02A1.551,1.551,0,0,1,105.7,197.2a1.59,1.59,0,0,1-1.513,1.817C103.729,199.085,103.269,199.1,102.651,199.146Z" transform="translate(-49.349 -96.613)" fill="#a29eff"/>
    <path id="Tracé_47" data-name="Tracé 47" d="M35.757,56.692c2.784-.607,5.456-.992,8-1.792a29.629,29.629,0,0,0,13.336-9,2.346,2.346,0,0,1,1.928-.926q13.453.046,26.906-.01c1.154-.005,1.392.375,1.387,1.448-.04,8.422.2,16.854-.076,25.266-.354,10.75-5.572,18.651-15.285,23.282C56.3,102.411,38.287,91.908,35.9,75.09a39.1,39.1,0,0,1-.2-5.284c-.025-3.958-.01-7.916-.005-11.874C35.7,57.441,35.747,56.95,35.757,56.692ZM42.878,62c-.005,4.206,3.092,7.238,7.081,6.944A6.813,6.813,0,0,0,56.032,61a1.72,1.72,0,0,0-1.751-1.645,1.746,1.746,0,0,0-1.8,1.721c-.035.415.005.84-.025,1.26a3.059,3.059,0,0,1-2.976,3,3.111,3.111,0,0,1-3.017-2.981,13.558,13.558,0,0,0-.076-1.508,1.768,1.768,0,0,0-3.507.137C42.848,61.323,42.878,61.662,42.878,62Zm37.175.218c0-.294.01-.587,0-.881-.046-1.21-.653-1.928-1.665-1.984a1.853,1.853,0,0,0-1.908,1.908c-.025.375.005.754-.015,1.134a2.954,2.954,0,0,1-5.856.536,16.392,16.392,0,0,1-.162-1.873,1.678,1.678,0,0,0-1.7-1.685,1.636,1.636,0,0,0-1.827,1.549c-.263,2.607.339,4.975,2.521,6.63a6.23,6.23,0,0,0,6.878.739A6.315,6.315,0,0,0,80.053,62.219Z" transform="translate(-17.616 -22.204)" fill="#fff"/>
    <path id="Tracé_48" data-name="Tracé 48" d="M86.758,153.32c0,1.478.015,2.774-.015,4.064a1.074,1.074,0,0,1-.324.653c-2.424,2.445-4.859,4.874-7.354,7.374-2.5-2.5-4.95-4.909-7.339-7.379a2.335,2.335,0,0,1-.375-1.382c-.056-.911-.015-1.832-.015-2.936A31.452,31.452,0,0,0,86.758,153.32Z" transform="translate(-35.212 -75.72)" fill="#fff"/>
    <path id="Tracé_49" data-name="Tracé 49" d="M129.983,207.3a4.844,4.844,0,1,1,4.844-4.889A4.867,4.867,0,0,1,129.983,207.3Z" transform="translate(-61.801 -97.593)" fill="#a29eff"/>
    <path id="Tracé_50" data-name="Tracé 50" d="M145.13,85.144V79.02A3.522,3.522,0,0,1,145.13,85.144Z" transform="translate(-71.664 -39.025)" fill="#a29eff"/>
    <path id="Tracé_51" data-name="Tracé 51" d="M26.307,85a3.247,3.247,0,0,1-1.893-2.834c-.081-1.437.673-2.465,1.893-3.548Z" transform="translate(-12.043 -38.827)" fill="#a29eff"/>
    <path id="Tracé_52" data-name="Tracé 52" d="M49.878,76.054a9.544,9.544,0,0,1,.005-1.007,1.768,1.768,0,0,1,3.507-.137,13.5,13.5,0,0,1,.076,1.508A3.1,3.1,0,0,0,56.483,79.4a3.069,3.069,0,0,0,2.976-3c.03-.42-.01-.84.025-1.26a1.743,1.743,0,0,1,1.8-1.721,1.717,1.717,0,0,1,1.751,1.645A6.809,6.809,0,0,1,56.964,83C52.971,83.292,49.873,80.26,49.878,76.054Z" transform="translate(-24.616 -36.256)" fill="#a29eff"/>
    <path id="Tracé_53" data-name="Tracé 53" d="M110.468,76.257a6.311,6.311,0,0,1-3.735,6.068,6.239,6.239,0,0,1-6.878-.739c-2.181-1.655-2.784-4.024-2.521-6.63a1.636,1.636,0,0,1,1.827-1.549,1.675,1.675,0,0,1,1.7,1.685,16.4,16.4,0,0,0,.162,1.873,2.964,2.964,0,0,0,3.1,2.394,2.994,2.994,0,0,0,2.753-2.93c.02-.38-.01-.759.015-1.134a1.856,1.856,0,0,1,1.908-1.908c1.012.056,1.62.774,1.665,1.984C110.478,75.67,110.468,75.964,110.468,76.257Z" transform="translate(-48.03 -36.242)" fill="#a29eff"/>
  </g>
</svg>
