<svg xmlns="http://www.w3.org/2000/svg" xmlns:xlink="http://www.w3.org/1999/xlink" width="162.889" height="160.022" viewBox="0 0 162.889 160.022">
  <defs>
    <linearGradient id="linear-gradient" x1="0.5" x2="0.5" y2="1" gradientUnits="objectBoundingBox">
      <stop offset="0" stop-color="#a29eff"/>
      <stop offset="1" stop-color="#e0d7f6"/>
    </linearGradient>
  </defs>
  <g id="Groupe_26" data-name="Groupe 26" transform="translate(-125.857 -127.314)">
    <path id="Tracé_3" data-name="Tracé 3" d="M119.2,36.066C112.964,15.655,99.684,4.519,85.778,1.15,69.168-2.876,49.264,3.691,44.207,20.5S32.24,57,12.591,55.589.235,78.036,8.09,89.156s29.675,30.782,66.423,20.734C104.249,101.757,129.891,71.043,119.2,36.066Z" transform="matrix(-0.848, -0.53, 0.53, -0.848, 229.044, 287.335)" opacity="0.75" fill="url(#linear-gradient)"/>
    <g id="fiBgpj.tif_1_" transform="translate(172.997 144.516)">
      <g id="Groupe_5" data-name="Groupe 5" transform="translate(0.004 -0.016)">
        <path id="Tracé_16" data-name="Tracé 16" d="M67.788,20.481A76.33,76.33,0,0,1,64.053,44.9,47.993,47.993,0,0,1,52.676,63.82,45.652,45.652,0,0,1,36.021,74.274a5.847,5.847,0,0,1-4.385-.07A44.158,44.158,0,0,1,5.619,49.716,66.87,66.87,0,0,1,.388,28.679a94.7,94.7,0,0,1-.23-14c.064-1.225.221-2.445.34-3.67A1.128,1.128,0,0,1,1.382,9.9C5.845,8.541,10.3,7.137,14.751,5.75,20.64,3.918,26.532,2.1,32.413.248A4.336,4.336,0,0,1,35.183.18C43.43,2.79,51.692,5.355,59.948,7.932c2.136.667,4.267,1.35,6.417,1.975a1.166,1.166,0,0,1,.925,1.168C67.6,14.2,67.782,17.337,67.788,20.481ZM45.73,39.15c1.886,0,3.77-.01,5.656,0a5.192,5.192,0,0,0,2.221-.489,5.392,5.392,0,0,0-2.238-10.34c-3.852-.014-7.7-.029-11.556.014-.849.01-1.056-.271-1.058-1.079,0-3.277-.074-6.554-.118-9.829a5.319,5.319,0,0,0-.331-1.842,5.4,5.4,0,0,0-10.494,1.946c.025,3.223-.027,6.446.13,9.666.05,1.037-.044,1.12-1.089,1.12q-5.328,0-10.655,0a5.028,5.028,0,0,0-1.462.135,5.432,5.432,0,0,0,1.557,10.7c3.606,0,7.214.012,10.819-.012.64,0,.921.133.923.851.008,2.867.079,5.734.122,8.6.019,1.366,0,2.731.037,4.1a5.45,5.45,0,1,0,10.893-.246c-.031-4.151-.095-8.3-.17-12.452-.012-.638.186-.863.838-.851C41.741,39.171,43.735,39.15,45.73,39.15Z" transform="translate(-0.004 0.016)" fill="#2d2043"/>
      </g>
    </g>
  </g>
</svg>
