<svg xmlns="http://www.w3.org/2000/svg" width="86.67" height="113.456" viewBox="0 0 86.67 113.456">
  <g id="Groupe_33" data-name="Groupe 33" transform="translate(-737 -4669.405)">
    <g id="Ellipse_24" data-name="Ellipse 24" transform="translate(757 4701)" fill="none" stroke="#a29eff" stroke-width="3">
      <circle cx="11.5" cy="11.5" r="11.5" stroke="none"/>
      <circle cx="11.5" cy="11.5" r="10" fill="none"/>
    </g>
    <g id="Ellipse_25" data-name="Ellipse 25" transform="translate(780 4701)" fill="none" stroke="#a29eff" stroke-width="3">
      <circle cx="11.5" cy="11.5" r="11.5" stroke="none"/>
      <circle cx="11.5" cy="11.5" r="10" fill="none"/>
    </g>
    <g id="Groupe_17" data-name="Groupe 17" transform="translate(737 4669.405)">
      <g id="_x35_xo5qs.tif_1_" transform="translate(0 0)">
        <g id="Groupe_16" data-name="Groupe 16" transform="translate(0 0)">
          <path id="Tracé_54" data-name="Tracé 54" d="M66.745,82.67c0-.074.064-.143.143-.316a16.677,16.677,0,0,1,11.871,5.538,17.069,17.069,0,0,1,4.5,11.787c.02,1.807,0,3.613,0,5.42a1.594,1.594,0,0,0,1.6,1.8,1.544,1.544,0,0,0,1.752-1.535c.094-4.709.346-9.437-1.54-13.954a20.771,20.771,0,0,0-19.087-12.8H54.963c0-1.2-.064-2.3.039-3.376.03-.316.5-.7.859-.859a28.283,28.283,0,0,0,16.594-20.1,30.848,30.848,0,0,0,.627-4.25,1.3,1.3,0,0,1,.869-1.273A6.993,6.993,0,0,0,78.4,42c-.227-3.189-1.718-5.528-4.891-6.525-.75-.237-.884-.656-.884-1.352.025-4.393.015-8.786.01-13.184A16.254,16.254,0,0,0,58.058,5.153a2.143,2.143,0,0,1-1.382-.765A10.389,10.389,0,0,0,47.984.044q-9.8-.1-19.585,0A20.644,20.644,0,0,0,8.137,19.225a10.419,10.419,0,0,0-.015,1.111,1.643,1.643,0,0,0,1.836,1.816c1.713.025,3.425,0,5.286,0v4.309c0,2.547.03,5.094-.035,7.636a1.562,1.562,0,0,1-.7,1.165c-2.986,1.343-4.941,3.46-4.931,6.851.01,3.312,1.821,5.489,4.817,6.782a1.524,1.524,0,0,1,.661,1.1,29.152,29.152,0,0,0,4.729,13.564,27.91,27.91,0,0,0,11.92,10.163c.829.375,1.229.8,1.135,1.737-.084.854-.025,1.723-.035,2.586a3.39,3.39,0,0,1-.1.508c-.4.02-.839.054-1.273.054-3.653,0-7.31,0-10.963,0A20.6,20.6,0,0,0,.22,96.965c-.252,2.646-.192,5.326-.212,7.991a1.749,1.749,0,0,0,1.752,1.96c1.022-.01,1.6-.745,1.639-2.024.074-2.665-.02-5.346.271-7.986C4.43,90,11.251,83.317,18.147,82.537a4.494,4.494,0,0,1,.637.039V86.5c0,2.177-.035,4.353.015,6.53a1.178,1.178,0,0,1-.992,1.377,7.973,7.973,0,0,0-5.755,8.549,8.312,8.312,0,0,0,6.708,7.231,8.18,8.18,0,0,0,9.348-5.78,7.964,7.964,0,0,0-4.679-9.783,1.717,1.717,0,0,1-1.278-1.974c.064-3.48.025-6.964.025-10.637h3.144c2.34,0,4.684-.039,7.019.03a2.624,2.624,0,0,1,1.614.617q3.857,3.628,7.586,7.389a2.52,2.52,0,0,1,.622,1.609c.049,4.23.025,8.46.035,12.69a5.237,5.237,0,0,0,.123,1.338,1.647,1.647,0,0,0,3.233-.306c.054-1.229.03-2.463.03-3.7,0-3.2.025-6.407-.015-9.61a3.1,3.1,0,0,1,.844-2.32c2.142-2.32,4.215-4.709,6.333-7.053.257-.281.632-.647.958-.652,3.149-.049,6.3-.03,9.585-.03m4.531,4.4M69,33.628c.015.252.059.731.059,1.214,0,3.86.02,7.72,0,11.58a38.126,38.126,0,0,1-.192,5.153C66.537,67.971,48.971,78.218,33.7,70.948c-9.477-4.511-14.561-12.216-14.906-22.7-.271-8.2-.039-16.427-.074-24.64,0-1.046.227-1.417,1.352-1.412,8.746.049,17.493.035,26.239.01a2.274,2.274,0,0,1,1.881.9,28.843,28.843,0,0,0,13,8.776C63.675,32.66,66.286,33.035,69,33.628ZM36.424,75.671a30.69,30.69,0,0,0,15.044.385c0,1.076.039,1.969-.015,2.863a2.277,2.277,0,0,1-.365,1.347c-2.33,2.409-4.724,4.763-7.157,7.2-2.433-2.438-4.812-4.808-7.172-7.192a1.075,1.075,0,0,1-.316-.637C36.409,78.376,36.424,77.113,36.424,75.671ZM20.2,106.979a4.757,4.757,0,0,1-4.729-4.768,4.7,4.7,0,0,1,4.793-4.679,4.724,4.724,0,0,1-.064,9.447ZM15.047,44.97a3.433,3.433,0,0,1,0-5.972Zm57.735.054V38.8c1.185,1.056,1.92,2.058,1.846,3.46A3.172,3.172,0,0,1,72.781,45.025Z" transform="translate(-0.007 0.01)" fill="#a29eff"/>
          <path id="Tracé_55" data-name="Tracé 55" d="M71.326,153.32c0,1.441-.015,2.7.015,3.963a1.047,1.047,0,0,0,.316.637c2.364,2.384,4.738,4.753,7.172,7.192,2.438-2.433,4.827-4.788,7.157-7.2a2.277,2.277,0,0,0,.365-1.348c.054-.888.015-1.787.015-2.863A30.672,30.672,0,0,1,71.326,153.32Z" transform="translate(-34.909 -77.639)" fill="#fff"/>
          <path id="Tracé_56" data-name="Tracé 56" d="M129.884,207.057a4.724,4.724,0,1,0-4.724-4.768A4.746,4.746,0,0,0,129.884,207.057Z" transform="translate(-109.691 -100.067)" fill="#a29eff"/>
          <path id="Tracé_57" data-name="Tracé 57" d="M146.866,84.992V79.02A3.435,3.435,0,0,0,146.866,84.992Z" transform="translate(-131.827 -40.012)" fill="#a29eff"/>
          <path id="Tracé_58" data-name="Tracé 58" d="M24.408,84.844a3.166,3.166,0,0,0,1.846-2.764c.079-1.4-.656-2.4-1.846-3.46Z" transform="translate(48.366 -39.809)" fill="#a29eff"/>
        </g>
      </g>
      <path id="Tracé_59" data-name="Tracé 59" d="M120.449,165.37h0a13.9,13.9,0,0,0-13.9,13.9V183.3a13.9,13.9,0,0,0,13.9,13.9h0a13.9,13.9,0,0,0,13.9-13.9v-4.028A13.9,13.9,0,0,0,120.449,165.37Z" transform="translate(-100.267 -83.741)" fill="#fff"/>
      <path id="Tracé_60" data-name="Tracé 60" d="M28.9,165.37h0a13.9,13.9,0,0,0-13.9,13.9V183.3a13.9,13.9,0,0,0,13.9,13.9h0a13.9,13.9,0,0,0,13.9-13.9v-4.028A13.9,13.9,0,0,0,28.9,165.37Z" transform="translate(36.471 -83.741)" fill="#fff"/>
    </g>
    <path id="Tracé_61" data-name="Tracé 61" d="M6195.182,4492.24s1.424,40.5-3.475,45.977,29.152,7.7,29.152,7.7-14.709-6.439-15.3-15.691-1-37.984-1-37.984Z" transform="translate(-5450 198)" fill="#a29eff"/>
    <path id="Tracé_62" data-name="Tracé 62" d="M6215.9,4492.24c-1.809-.009-.424,40.5,4.475,45.977s-29.152,7.7-29.152,7.7,14.709-6.439,15.3-15.691,1-37.984,1-37.984S6217.711,4492.25,6215.9,4492.24Z" transform="translate(-5400 198)" fill="#a29eff"/>
    <path id="Tracé_63" data-name="Tracé 63" d="M6238.354,4471.4s29.781,3.033,27.928,21.351-24.035-3.963-24.035-3.963l-19.361-17.388h-9.578" transform="translate(-5450 198)" fill="#a29eff"/>
  </g>
</svg>
