<svg xmlns="http://www.w3.org/2000/svg" xmlns:xlink="http://www.w3.org/1999/xlink" width="162.889" height="160.022" viewBox="0 0 162.889 160.022">
  <defs>
    <linearGradient id="linear-gradient" x1="0.5" x2="0.5" y2="1" gradientUnits="objectBoundingBox">
      <stop offset="0" stop-color="#a29eff"/>
      <stop offset="1" stop-color="#e0d7f6"/>
    </linearGradient>
  </defs>
  <g id="Groupe_27" data-name="Groupe 27" transform="translate(-125.857 -116.314)">
    <path id="Tracé_3" data-name="Tracé 3" d="M119.2,76.6c-6.238,20.411-19.519,31.547-33.425,34.916-16.61,4.026-36.514-2.54-41.571-19.345S32.24,55.659,12.591,57.074.235,34.627,8.09,23.507,37.764-7.275,74.513,2.773C104.249,10.906,129.892,41.619,119.2,76.6Z" transform="matrix(-0.848, 0.53, -0.53, -0.848, 288.746, 211.857)" opacity="0.75" fill="url(#linear-gradient)"/>
    <g id="ilJre3.tif_1_" transform="translate(181.099 158.679)">
      <g id="Groupe_1" data-name="Groupe 1" transform="translate(0.006 -0.007)">
        <path id="Tracé_4" data-name="Tracé 4" d="M25.935,65.356q-10.6,0-21.208,0A4.393,4.393,0,0,1,.339,61.373,14.022,14.022,0,0,1,.2,56.664a7.013,7.013,0,0,0,0-2.089A11.582,11.582,0,0,1,.2,50.957a3.609,3.609,0,0,0,.026-1.209c-.469-2.662-.04-5.35-.076-8.014A56.918,56.918,0,0,1,.2,33.613a8.122,8.122,0,0,0-.046-2.307,15.407,15.407,0,0,1,.362-5.794,3.969,3.969,0,0,1,3.442-3.156,1,1,0,0,0,.988-1.1A23.109,23.109,0,0,1,9.2,9.213,22.048,22.048,0,0,1,20.028,1,7.141,7.141,0,0,1,23.215.415a3.708,3.708,0,0,0,1.7-.263A2.57,2.57,0,0,1,26.019,0c8.31.641,14.71,4.59,18.7,12.687a21.433,21.433,0,0,1,2.237,8.6.928.928,0,0,0,.811,1.033c2.6.622,3.52,1.759,3.87,4.625a16.841,16.841,0,0,1,.067,4.718,8.38,8.38,0,0,0,.032,2.307,10.016,10.016,0,0,1-.008,3.07,2.483,2.483,0,0,0-.057.767c.4,2.847-.246,5.717.171,8.563.151,1.031-.287,2.066-.154,3.069.371,2.818-.249,5.64.145,8.458a13,13,0,0,1-.457,4.474,4.437,4.437,0,0,1-3.826,2.971q-9.177.009-18.354-.006H25.939A.013.013,0,0,0,25.935,65.356Zm-.8-34.984,11.031-8.094c1.791.013,1.987-.228,1.8-1.8a2.921,2.921,0,0,0-.078-.431c-1.032-3.72-2.822-6.813-6.135-8.637a11.211,11.211,0,0,0-6.631-1.591,12.657,12.657,0,0,0-5.633,2,13.162,13.162,0,0,0-5.527,8.72c-.317,1.493.007,1.9,1.386,1.707a53.833,53.833,0,0,1,7.5-.054,52.532,52.532,0,0,1,7.574.047C32.43,22.523,34.474,21.713,36.164,22.278Z" transform="translate(-0.006 0.007)" fill="#2d2043"/>
      </g>
    </g>
  </g>
</svg>
