<svg xmlns="http://www.w3.org/2000/svg" width="45.8" height="28.03" viewBox="0 0 45.8 28.03">
  <g id="Groupe_38" data-name="Groupe 38" transform="translate(-1663 -60)">
    <g id="Groupe_34_1_" transform="translate(1483.01 -695.01)">
      <g id="Groupe_35" data-name="Groupe 35">
        <path id="Tracé_74" data-name="Tracé 74" d="M180.64,768.88a.923.923,0,0,1-.56-.88,1.312,1.312,0,0,1,.31-.85.905.905,0,0,1,.69-.4.574.574,0,0,1,.25.06c.31.14.54.24.7.3a7.276,7.276,0,0,0,.81.23,4.613,4.613,0,0,0,1.08.13,3.238,3.238,0,0,0,1.86-.47,1.681,1.681,0,0,0,.67-1.49,2.1,2.1,0,0,0-.83-1.73,3.251,3.251,0,0,0-2.1-.65h-.82a.722.722,0,0,1-.62-.28,1.1,1.1,0,0,1-.21-.68,1.121,1.121,0,0,1,.21-.68.729.729,0,0,1,.62-.29h.77a3.4,3.4,0,0,0,1.96-.52,1.743,1.743,0,0,0,.77-1.53,1.678,1.678,0,0,0-.35-1.07,1.916,1.916,0,0,0-.85-.62,3.228,3.228,0,0,0-1.11-.19,5.935,5.935,0,0,0-2.62.56.709.709,0,0,1-.3.08.86.86,0,0,1-.68-.39,1.324,1.324,0,0,1-.3-.83.845.845,0,0,1,.42-.77,5.742,5.742,0,0,1,1.61-.63,8.4,8.4,0,0,1,2.08-.25,5.6,5.6,0,0,1,3.48,1.04,3.342,3.342,0,0,1,1.37,2.8,3.2,3.2,0,0,1-.59,1.97,3.53,3.53,0,0,1-1.67,1.18,3.22,3.22,0,0,1,1.9,1.28,4.009,4.009,0,0,1,.64,2.32,3.963,3.963,0,0,1-.4,1.82,3.375,3.375,0,0,1-1.09,1.27,5.127,5.127,0,0,1-1.59.72,7.519,7.519,0,0,1-1.96.24A7.738,7.738,0,0,1,180.64,768.88Z" fill="#2d2043"/>
        <path id="Tracé_75" data-name="Tracé 75" d="M194.61,769.36a4.407,4.407,0,0,1-1.57-.92,4.7,4.7,0,0,1-1.04-1.42,7.191,7.191,0,0,1-.6-1.8,11.32,11.32,0,0,1-.19-2.08,17.818,17.818,0,0,1,.17-2.54,9.393,9.393,0,0,1,.6-2.21,5.789,5.789,0,0,1,1.11-1.79,4.827,4.827,0,0,1,1.77-1.16,6.738,6.738,0,0,1,2.51-.43,7.122,7.122,0,0,1,3.09.69.8.8,0,0,1,.48.82,1.455,1.455,0,0,1-.27.85.8.8,0,0,1-.65.4.857.857,0,0,1-.24-.05,7.284,7.284,0,0,0-2.43-.52,3.767,3.767,0,0,0-1.4.24,2.59,2.59,0,0,0-.96.63,2.936,2.936,0,0,0-.58,1.02,5.734,5.734,0,0,0-.29,1.29,13.621,13.621,0,0,0-.08,1.53,2.312,2.312,0,0,1,1.14-.98,5.126,5.126,0,0,1,5.34.82,4.157,4.157,0,0,1,1.32,3.22,4.483,4.483,0,0,1-1.38,3.41,5.187,5.187,0,0,1-3.71,1.31A6.207,6.207,0,0,1,194.61,769.36Zm.23-6.25a2.8,2.8,0,0,0-.67,2,2.31,2.31,0,0,0,2.46,2.49,2.591,2.591,0,0,0,1.89-.64,2.536,2.536,0,0,0,.66-1.9,2.9,2.9,0,0,0-.6-1.94,2.235,2.235,0,0,0-1.8-.71A2.455,2.455,0,0,0,194.84,763.11Z" fill="#2d2043"/>
        <path id="Tracé_76" data-name="Tracé 76" d="M204.69,768.88a.923.923,0,0,1-.56-.88,1.312,1.312,0,0,1,.31-.85.905.905,0,0,1,.69-.4.574.574,0,0,1,.25.06c.31.14.54.24.7.3a7.276,7.276,0,0,0,.81.23,4.613,4.613,0,0,0,1.08.13,3.238,3.238,0,0,0,1.86-.47,1.681,1.681,0,0,0,.67-1.49,2.1,2.1,0,0,0-.83-1.73,3.251,3.251,0,0,0-2.1-.65h-.82a.722.722,0,0,1-.62-.28,1.1,1.1,0,0,1-.21-.68,1.121,1.121,0,0,1,.21-.68.729.729,0,0,1,.62-.29h.77a3.4,3.4,0,0,0,1.96-.52,1.743,1.743,0,0,0,.77-1.53,1.678,1.678,0,0,0-.35-1.07,1.916,1.916,0,0,0-.85-.62,3.314,3.314,0,0,0-1.11-.19,5.935,5.935,0,0,0-2.62.56.709.709,0,0,1-.3.08.86.86,0,0,1-.68-.39,1.324,1.324,0,0,1-.3-.83.845.845,0,0,1,.42-.77,5.742,5.742,0,0,1,1.61-.63,8.4,8.4,0,0,1,2.08-.25,5.6,5.6,0,0,1,3.48,1.04,3.342,3.342,0,0,1,1.37,2.8,3.2,3.2,0,0,1-.59,1.97,3.463,3.463,0,0,1-1.67,1.18,3.22,3.22,0,0,1,1.9,1.28,4.009,4.009,0,0,1,.64,2.32,3.963,3.963,0,0,1-.4,1.82,3.375,3.375,0,0,1-1.09,1.27,5.235,5.235,0,0,1-1.59.72,7.519,7.519,0,0,1-1.96.24A7.681,7.681,0,0,1,204.69,768.88Z" fill="#2d2043"/>
        <path id="Tracé_77" data-name="Tracé 77" d="M216.55,769.03a.8.8,0,0,1-.49-.83,1.455,1.455,0,0,1,.27-.85.788.788,0,0,1,.66-.39.857.857,0,0,1,.24.05,7.591,7.591,0,0,0,2.43.52,3.767,3.767,0,0,0,1.4-.24,2.59,2.59,0,0,0,.96-.63,2.936,2.936,0,0,0,.58-1.02,6.337,6.337,0,0,0,.29-1.29,13.618,13.618,0,0,0,.08-1.53,2.362,2.362,0,0,1-1.14.98,5.126,5.126,0,0,1-5.34-.82,4.2,4.2,0,0,1-1.32-3.23,4.476,4.476,0,0,1,1.38-3.4,5.144,5.144,0,0,1,3.71-1.31,6.123,6.123,0,0,1,2.12.34,4.559,4.559,0,0,1,1.57.92,4.9,4.9,0,0,1,1.05,1.42,6.809,6.809,0,0,1,.6,1.8,11.321,11.321,0,0,1,.19,2.08c0,.65-.03,1.26-.08,1.84a13.536,13.536,0,0,1-.28,1.69,7.974,7.974,0,0,1-.52,1.52,5.5,5.5,0,0,1-.8,1.26,4.943,4.943,0,0,1-1.11.98,5.114,5.114,0,0,1-1.48.62,7.348,7.348,0,0,1-1.88.22A6.992,6.992,0,0,1,216.55,769.03Zm5.6-7.41a2.757,2.757,0,0,0,.68-2,2.431,2.431,0,0,0-.67-1.82,2.47,2.47,0,0,0-1.8-.67,2.582,2.582,0,0,0-1.88.64,2.527,2.527,0,0,0-.66,1.89,2.915,2.915,0,0,0,.6,1.95,2.183,2.183,0,0,0,1.79.71A2.518,2.518,0,0,0,222.15,761.62Z" fill="#2d2043"/>
      </g>
      <g id="Groupe_36" data-name="Groupe 36">
        <path id="Tracé_78" data-name="Tracé 78" d="M183.1,782.54a2.35,2.35,0,0,1-2.48-2.41v-4.77h.76v4.71a1.726,1.726,0,1,0,3.45,0v-4.71h.76v4.77A2.359,2.359,0,0,1,183.1,782.54Z" fill="#2d2043"/>
        <path id="Tracé_79" data-name="Tracé 79" d="M191.64,782.48l-1.62-3.16h-1.71v3.16h-.76v-7.12h2.73a1.926,1.926,0,0,1,2.11,1.98,1.847,1.847,0,0,1-1.55,1.91l1.69,3.23h-.89Zm-1.43-6.43h-1.9v2.61h1.9a1.31,1.31,0,1,0,0-2.61Z" fill="#2d2043"/>
        <path id="Tracé_80" data-name="Tracé 80" d="M198.23,781.72a2.506,2.506,0,0,1-1.9.82,2.441,2.441,0,0,1-1.78-.7c-.67-.67-.71-1.29-.71-2.92s.04-2.25.71-2.92a2.55,2.55,0,0,1,4.27,1.43h-.76a1.7,1.7,0,0,0-1.73-1.45,1.658,1.658,0,0,0-1.23.5c-.45.46-.5.98-.5,2.44s.05,1.98.5,2.44a1.658,1.658,0,0,0,1.23.5,1.735,1.735,0,0,0,1.35-.61,1.9,1.9,0,0,0,.4-1.29v-.55h-1.75v-.65h2.51v1.13A2.414,2.414,0,0,1,198.23,781.72Z" fill="#2d2043"/>
        <path id="Tracé_81" data-name="Tracé 81" d="M200.61,782.48v-7.12h4.42v.68h-3.66v2.51h3.12v.68h-3.12v2.57h3.66v.68Z" fill="#2d2043"/>
        <path id="Tracé_82" data-name="Tracé 82" d="M211.15,782.48l-3.78-5.71v5.71h-.76v-7.12h.72l3.78,5.69v-5.69h.76v7.12Z" fill="#2d2043"/>
        <path id="Tracé_83" data-name="Tracé 83" d="M216.15,782.54a2.441,2.441,0,0,1-1.78-.7c-.67-.67-.71-1.29-.71-2.92s.04-2.25.71-2.92a2.441,2.441,0,0,1,1.78-.7,2.41,2.41,0,0,1,2.47,2.12h-.78a1.673,1.673,0,0,0-1.69-1.44,1.69,1.69,0,0,0-1.23.5c-.45.46-.5.98-.5,2.44s.05,1.98.5,2.44a1.744,1.744,0,0,0,2.94-.94h.76A2.417,2.417,0,0,1,216.15,782.54Z" fill="#2d2043"/>
        <path id="Tracé_84" data-name="Tracé 84" d="M220.3,782.48v-7.12h4.42v.68h-3.66v2.51h3.12v.68h-3.12v2.57h3.66v.68Z" fill="#2d2043"/>
      </g>
      <g id="Groupe_37" data-name="Groupe 37">
        <path id="Tracé_85" data-name="Tracé 85" d="M183.1,782.54a2.35,2.35,0,0,1-2.48-2.41v-4.77h.76v4.71a1.726,1.726,0,1,0,3.45,0v-4.71h.76v4.77A2.359,2.359,0,0,1,183.1,782.54Z" fill="none" stroke="#2d2043" stroke-width="1"/>
        <path id="Tracé_86" data-name="Tracé 86" d="M191.64,782.48l-1.62-3.16h-1.71v3.16h-.76v-7.12h2.73a1.926,1.926,0,0,1,2.11,1.98,1.847,1.847,0,0,1-1.55,1.91l1.69,3.23h-.89Zm-1.43-6.43h-1.9v2.61h1.9a1.31,1.31,0,1,0,0-2.61Z" fill="none" stroke="#2d2043" stroke-width="1"/>
        <path id="Tracé_87" data-name="Tracé 87" d="M198.23,781.72a2.506,2.506,0,0,1-1.9.82,2.441,2.441,0,0,1-1.78-.7c-.67-.67-.71-1.29-.71-2.92s.04-2.25.71-2.92a2.55,2.55,0,0,1,4.27,1.43h-.76a1.7,1.7,0,0,0-1.73-1.45,1.658,1.658,0,0,0-1.23.5c-.45.46-.5.98-.5,2.44s.05,1.98.5,2.44a1.658,1.658,0,0,0,1.23.5,1.735,1.735,0,0,0,1.35-.61,1.9,1.9,0,0,0,.4-1.29v-.55h-1.75v-.65h2.51v1.13A2.414,2.414,0,0,1,198.23,781.72Z" fill="none" stroke="#2d2043" stroke-width="1"/>
        <path id="Tracé_88" data-name="Tracé 88" d="M200.61,782.48v-7.12h4.42v.68h-3.66v2.51h3.12v.68h-3.12v2.57h3.66v.68Z" fill="none" stroke="#2d2043" stroke-width="1"/>
        <path id="Tracé_89" data-name="Tracé 89" d="M211.15,782.48l-3.78-5.71v5.71h-.76v-7.12h.72l3.78,5.69v-5.69h.76v7.12Z" fill="none" stroke="#2d2043" stroke-width="1"/>
        <path id="Tracé_90" data-name="Tracé 90" d="M216.15,782.54a2.441,2.441,0,0,1-1.78-.7c-.67-.67-.71-1.29-.71-2.92s.04-2.25.71-2.92a2.441,2.441,0,0,1,1.78-.7,2.41,2.41,0,0,1,2.47,2.12h-.78a1.673,1.673,0,0,0-1.69-1.44,1.69,1.69,0,0,0-1.23.5c-.45.46-.5.98-.5,2.44s.05,1.98.5,2.44a1.744,1.744,0,0,0,2.94-.94h.76A2.417,2.417,0,0,1,216.15,782.54Z" fill="none" stroke="#2d2043" stroke-width="1"/>
        <path id="Tracé_91" data-name="Tracé 91" d="M220.3,782.48v-7.12h4.42v.68h-3.66v2.51h3.12v.68h-3.12v2.57h3.66v.68Z" fill="none" stroke="#2d2043" stroke-width="1"/>
      </g>
    </g>
  </g>
</svg>
